<svg width="100" height="100" viewBox="0 0 100 100" fill="none" xmlns="http://www.w3.org/2000/svg">
<g clip-path="url(#clip0_1395_60)">
<path d="M50.4013 0.499858C22.8013 0.299858 0.301323 22.7999 0.501323 50.3999C0.701323 77.2999 22.7013 99.1999 49.6013 99.4999C77.3013 99.6999 99.8013 77.1999 99.5013 49.5999C99.3013 22.6999 77.3013 0.699858 50.4013 0.499858Z" fill="white"/>
<path d="M35.6031 25.8999C38.7031 29.7999 40.5031 34.6999 40.5031 40.0999C40.5031 44.6999 39.1031 48.9999 36.8031 52.5999H20.2031L35.6031 25.8999Z" fill="black"/>
<path d="M86.2993 58.4998C86.2993 58.6998 86.1993 58.8998 85.9993 58.9998C84.8993 59.4998 81.1993 61.1998 79.5993 63.3998C75.5993 68.8998 72.5993 77.6998 65.7993 77.6998H37.2993C27.1993 77.6998 18.7993 69.6998 18.8993 59.0998C18.8993 58.7998 19.0993 58.5998 19.3993 58.5998H32.7993C33.2993 58.5998 33.5993 58.9998 33.5993 59.3998V61.9998C33.5993 63.3998 34.6993 64.4998 36.0993 64.4998H46.2993V58.5998H39.2993C43.2993 53.4998 45.6993 47.0998 45.6993 40.0998C45.6993 32.2998 42.6993 25.1998 37.7993 19.8998C40.7993 20.1998 43.5993 20.7998 46.1993 21.5998V19.8998C46.1993 18.1998 47.5993 16.7998 49.2993 16.7998C50.9993 16.7998 52.3993 18.1998 52.3993 19.8998V23.8998C61.8993 28.2998 68.1993 35.6998 68.1993 44.0998C68.1993 48.9998 66.0993 53.5998 62.3993 57.3998C61.6993 58.0998 60.6993 58.4998 59.6993 58.4998H52.4993V64.3998H61.4993C63.3993 64.3998 66.8993 60.6998 68.5993 58.4998C68.5993 58.4998 68.6993 58.3998 68.8993 58.2998C69.0993 58.1998 85.4993 54.4998 85.4993 54.4998C85.7993 54.3998 86.1993 54.6998 86.1993 54.9998L86.2993 58.4998Z" fill="black"/>
</g>
<defs>
<clipPath id="clip0_1395_60">
<rect width="100" height="100" fill="white"/>
</clipPath>
</defs>
</svg>
