<svg width="100" height="100" viewBox="0 0 100 100" fill="none" xmlns="http://www.w3.org/2000/svg">
<g clip-path="url(#clip0_1395_79)">
<path d="M50 100C77.6142 100 100 77.6142 100 50C100 22.3858 77.6142 0 50 0C22.3858 0 0 22.3858 0 50C0 77.6142 22.3858 100 50 100Z" fill="white"/>
<path d="M33.8438 53.6549L39.7758 70.0741C39.7758 70.0741 40.5175 71.6103 41.3117 71.6103C42.1058 71.6103 53.9179 59.322 53.9179 59.322L67.0533 33.9512L34.0554 49.4166L33.8438 53.6549Z" fill="white"/>
<path d="M41.7134 57.8657L40.5746 69.9682C40.5746 69.9682 40.098 73.6766 43.8055 69.9682C47.513 66.2599 51.0617 63.4003 51.0617 63.4003" fill="white"/>
<path d="M33.9563 54.2407L21.7538 50.2649C21.7538 50.2649 20.2955 49.6732 20.765 48.3316C20.8617 48.0549 21.0567 47.8195 21.64 47.4149C24.3438 45.5303 71.6842 28.5149 71.6842 28.5149C71.6842 28.5149 73.0209 28.0645 73.8092 28.364C74.0042 28.4244 74.1797 28.5355 74.3177 28.686C74.4557 28.8364 74.5513 29.0208 74.5946 29.2203C74.6798 29.5727 74.7154 29.9352 74.7005 30.2974C74.6967 30.6107 74.6588 30.9011 74.63 31.3565C74.3417 36.0086 65.7134 70.7286 65.7134 70.7286C65.7134 70.7286 65.1971 72.7603 63.3475 72.8299C62.893 72.8446 62.4402 72.7676 62.016 72.6035C61.5919 72.4394 61.2051 72.1916 60.8788 71.8749C57.2492 68.7528 44.7042 60.322 41.9321 58.4678C41.8696 58.4252 41.8169 58.3697 41.7777 58.305C41.7384 58.2403 41.7135 58.1679 41.7046 58.0928C41.6659 57.8974 41.8784 57.6553 41.8784 57.6553C41.8784 57.6553 63.7225 38.2386 64.3038 36.2003C64.3488 36.0424 64.1788 35.9645 63.9505 36.0336C62.4996 36.5674 37.3488 52.4503 34.573 54.2032C34.3731 54.2637 34.162 54.2765 33.9563 54.2407Z" fill="black"/>
</g>
<defs>
<clipPath id="clip0_1395_79">
<rect width="100" height="100" fill="white"/>
</clipPath>
</defs>
</svg>
